<?xml version="1.0" encoding="iso-8859-1"?>
<!-- Uploaded to: SVG Repo, www.svgrepo.com, Generator: SVG Repo Mixer Tools -->
<svg fill="#000000" height="800px" width="800px" version="1.1" id="Layer_1" xmlns="http://www.w3.org/2000/svg" xmlns:xlink="http://www.w3.org/1999/xlink" 
	 viewBox="0 0 512 512" xml:space="preserve">
<g>
	<g>
		<path d="M491.789,102.721H20.211C9.049,102.721,0,111.77,0,122.931v266.138c0,11.162,9.049,20.211,20.211,20.211h471.579
			c11.162,0,20.211-9.049,20.211-20.211V122.931C512,111.77,502.951,102.721,491.789,102.721z M471.579,368.858H40.421V143.142
			h431.158V368.858z"/>
	</g>
</g>
<g>
	<g>
		<path d="M401.284,239.076l-134.237-87.618c-6.713-4.382-15.38-4.38-22.094,0l-134.237,87.618c-12.2,7.964-12.21,25.879,0,33.849
			l134.237,87.618c6.714,4.382,15.382,4.382,22.094,0l134.237-87.618C413.483,264.961,413.494,247.045,401.284,239.076z
			 M256,319.484L158.739,256L256,192.516L353.26,256L256,319.484z"/>
	</g>
</g>
<g>
	<g>
		<circle cx="256" cy="256" r="29.181"/>
	</g>
</g>
</svg>